<svg width="416" height="236" viewBox="0 0 416 236" fill="none" xmlns="http://www.w3.org/2000/svg">
<path d="M315.805 196.753L315.8 136.19L315.8 135.496L315.141 135.715L213.191 169.754C210.023 170.812 206.597 170.812 203.428 169.754L101.478 135.715L100.819 135.496V136.19V182.117V182.117L100.813 196.204C100.812 196.207 100.812 196.21 100.812 196.211L100.812 196.211L100.812 196.234L100.812 196.302L100.812 196.509L100.812 196.718L100.812 196.787L100.812 196.806L100.812 196.811L100.812 196.812V196.812V196.812V196.813V197.079V197.146L100.83 197.211C100.97 197.725 101.718 199.233 105.263 201.946C109.751 205.38 117.048 209.022 127.208 212.31C147.387 218.841 176.062 223.089 208.31 223.089C240.557 223.089 269.232 218.841 289.411 212.31C299.571 209.022 306.868 205.38 311.356 201.946C314.845 199.277 315.604 197.59 315.763 197.051C315.775 197.025 315.781 197.005 315.784 196.996C315.791 196.973 315.795 196.954 315.797 196.944C315.801 196.923 315.803 196.907 315.804 196.9C315.805 196.885 315.806 196.873 315.806 196.868C315.807 196.85 315.807 196.829 315.807 196.812V196.811C315.807 196.804 315.807 196.781 315.805 196.753ZM207.311 158.124C207.959 158.34 208.66 158.34 209.308 158.124L328.061 118.475V195.379V195.381V195.384V195.387V195.39V195.393V195.395V195.398V195.401V195.404V195.407V195.41V195.412V195.415V195.418V195.421V195.424V195.426V195.429V195.432V195.435V195.438V195.441V195.443V195.446V195.449V195.452V195.455V195.458V195.461V195.463V195.466V195.469V195.472V195.475V195.478V195.481V195.483V195.486V195.489V195.492V195.495V195.498V195.501V195.503V195.506V195.509V195.512V195.515V195.518V195.521V195.524V195.527V195.529V195.532V195.535V195.538V195.541V195.544V195.547V195.55V195.553V195.555V195.558V195.561V195.564V195.567V195.57V195.573V195.576V195.579V195.582V195.585V195.587V195.59V195.593V195.596V195.599V195.602V195.605V195.608V195.611V195.614V195.617V195.62V195.623V195.625V195.628V195.631V195.634V195.637V195.64V195.643V195.646V195.649V195.652V195.655V195.658V195.661V195.664V195.667V195.67V195.673V195.676V195.679V195.681V195.684V195.687V195.69V195.693V195.696V195.699V195.702V195.705V195.708V195.711V195.714V195.717V195.72V195.723V195.726V195.729V195.732V195.735V195.738V195.741V195.744V195.747V195.75V195.753V195.756V195.759V195.762V195.765V195.768V195.771V195.774V195.777V195.78V195.783V195.786V195.789V195.792V195.795V195.798V195.801V195.804V195.807V195.81V195.813V195.816V195.819V195.822V195.825V195.828V195.831V195.834V195.837V195.84V195.843V195.846V195.849V195.852V195.855V195.858V195.861V195.864V195.867V195.87V195.873V195.876V195.879V195.882V195.885V195.888V195.891V195.894V195.897V195.9V195.904V195.907V195.91V195.913V195.916V195.919V195.922V195.925V195.928V195.931V195.934V195.937V195.94V195.943V195.946V195.949V195.952V195.955V195.958V195.961V195.964V195.967V195.971V195.974V195.977V195.98V195.983V195.986V195.989V195.992V195.995V195.998V196.001V196.004V196.007V196.01V196.013V196.016V196.02V196.023V196.026V196.029V196.032V196.035V196.038V196.041V196.044V196.047V196.05V196.053V196.056V196.059V196.063V196.066V196.069V196.072V196.075V196.078V196.081V196.084V196.087V196.09V196.093V196.096V196.099V196.103V196.106V196.109V196.112V196.115V196.118V196.121V196.124V196.127V196.13V196.133V196.136V196.14V196.143V196.146V196.149V196.152V196.155V196.158V196.161V196.164V196.167V196.171V196.174V196.177V196.18V196.183V196.186V196.189V196.192V196.195V196.198V196.201V196.205V196.208V196.211V196.214V196.217V196.22V196.223V196.226V196.229V196.232V196.236V196.239V196.242V196.245V196.248V196.251V196.254V196.257V196.26V196.264V196.267V196.27V196.273V196.276V196.279V196.282V196.285V196.288V196.291V196.295V196.298V196.301V196.304V196.307V196.31V196.313V196.316V196.319V196.323V196.326V196.329V196.332V196.335V196.338V196.341V196.344V196.347V196.351V196.354V196.357V196.36V196.363V196.366V196.369V196.372V196.375V196.379V196.382V196.385V196.388V196.391V196.394V196.397V196.4V196.403V196.407V196.41V196.413V196.416V196.419V196.422V196.425V196.428V196.431V196.435V196.438V196.441V196.444V196.447V196.45V196.453V196.456V196.459V196.463V196.466V196.469V196.472V196.475V196.478V196.481V196.484V196.487V196.491V196.494V196.497V196.5V196.503V196.506V196.509V196.512V196.516V196.519V196.522V196.525V196.528V196.531V196.534V196.537V196.54V196.544V196.547V196.55V196.553V196.556V196.559V196.562V196.565V196.568V196.571V196.575V196.578V196.581V196.584V196.587V196.59V196.593V196.596V196.599V196.603V196.606V196.609V196.612V196.615V196.618V196.621V196.624V196.627V196.631V196.634V196.637V196.64V196.643V196.646V196.649V196.652V196.655V196.658V196.662V196.665V196.668V196.671V196.674V196.677V196.68V196.683V196.686V196.689V196.693V196.696V196.699V196.702V196.705V196.708V196.711V196.714V196.717V196.72V196.723V196.727V196.73V196.733V196.736V196.739V196.742V196.745V196.748V196.751V196.754V196.757V196.761V196.764V196.767V196.77V196.773V196.776V196.779V196.782V196.785V196.788V196.791V196.794V196.798V196.801V196.804V196.807V196.81V196.813V196.816V196.819V196.822V196.825V196.828V196.831V196.834V196.838V196.841V196.844V196.847V196.85V196.853V196.856V196.859V196.862V196.865V196.868V196.871V196.874V196.877V196.88V196.883V196.887V196.89V196.893V196.896V196.899V196.902V196.905V196.908V196.911V196.914V196.917V196.92V196.923V196.926V196.929V196.932C328.061 197.433 328.031 197.931 327.971 198.426C327.365 203.415 323.725 208.238 317.453 212.68C311.191 217.116 302.38 221.118 291.596 224.481C270.032 231.207 240.675 235.35 208.31 235.35C175.944 235.35 146.588 231.207 125.023 224.481C114.239 221.118 105.428 217.116 99.1662 212.68C92.8944 208.238 89.254 203.415 88.6486 198.426C88.5884 197.931 88.5581 197.433 88.5581 196.932L88.5581 196.414C88.5582 196.071 88.5582 195.728 88.5581 195.379C88.5581 195.379 88.5581 195.379 88.5581 195.379V118.475L207.311 158.124Z" fill="#57C78F"/>
<path d="M315.805 196.753L315.8 136.19L315.8 135.496L315.141 135.715L213.191 169.754C210.023 170.812 206.597 170.812 203.428 169.754L101.478 135.715L100.819 135.496V136.19V182.117V182.117L100.813 196.204C100.812 196.207 100.812 196.21 100.812 196.211L100.812 196.211L100.812 196.234L100.812 196.302L100.812 196.509L100.812 196.718L100.812 196.787L100.812 196.806L100.812 196.811L100.812 196.812V196.812V196.812V196.813V197.079V197.146L100.83 197.211C100.97 197.725 101.718 199.233 105.263 201.946C109.751 205.38 117.048 209.022 127.208 212.31C147.387 218.841 176.062 223.089 208.31 223.089C240.557 223.089 269.232 218.841 289.411 212.31C299.571 209.022 306.868 205.38 311.356 201.946C314.845 199.277 315.604 197.59 315.763 197.051C315.775 197.025 315.781 197.005 315.784 196.996C315.791 196.973 315.795 196.954 315.797 196.944C315.801 196.923 315.803 196.907 315.804 196.9C315.805 196.885 315.806 196.873 315.806 196.868C315.807 196.85 315.807 196.829 315.807 196.812V196.811C315.807 196.804 315.807 196.781 315.805 196.753ZM207.311 158.124C207.959 158.34 208.66 158.34 209.308 158.124L328.061 118.475V195.379V195.381V195.384V195.387V195.39V195.393V195.395V195.398V195.401V195.404V195.407V195.41V195.412V195.415V195.418V195.421V195.424V195.426V195.429V195.432V195.435V195.438V195.441V195.443V195.446V195.449V195.452V195.455V195.458V195.461V195.463V195.466V195.469V195.472V195.475V195.478V195.481V195.483V195.486V195.489V195.492V195.495V195.498V195.501V195.503V195.506V195.509V195.512V195.515V195.518V195.521V195.524V195.527V195.529V195.532V195.535V195.538V195.541V195.544V195.547V195.55V195.553V195.555V195.558V195.561V195.564V195.567V195.57V195.573V195.576V195.579V195.582V195.585V195.587V195.59V195.593V195.596V195.599V195.602V195.605V195.608V195.611V195.614V195.617V195.62V195.623V195.625V195.628V195.631V195.634V195.637V195.64V195.643V195.646V195.649V195.652V195.655V195.658V195.661V195.664V195.667V195.67V195.673V195.676V195.679V195.681V195.684V195.687V195.69V195.693V195.696V195.699V195.702V195.705V195.708V195.711V195.714V195.717V195.72V195.723V195.726V195.729V195.732V195.735V195.738V195.741V195.744V195.747V195.75V195.753V195.756V195.759V195.762V195.765V195.768V195.771V195.774V195.777V195.78V195.783V195.786V195.789V195.792V195.795V195.798V195.801V195.804V195.807V195.81V195.813V195.816V195.819V195.822V195.825V195.828V195.831V195.834V195.837V195.84V195.843V195.846V195.849V195.852V195.855V195.858V195.861V195.864V195.867V195.87V195.873V195.876V195.879V195.882V195.885V195.888V195.891V195.894V195.897V195.9V195.904V195.907V195.91V195.913V195.916V195.919V195.922V195.925V195.928V195.931V195.934V195.937V195.94V195.943V195.946V195.949V195.952V195.955V195.958V195.961V195.964V195.967V195.971V195.974V195.977V195.98V195.983V195.986V195.989V195.992V195.995V195.998V196.001V196.004V196.007V196.01V196.013V196.016V196.02V196.023V196.026V196.029V196.032V196.035V196.038V196.041V196.044V196.047V196.05V196.053V196.056V196.059V196.063V196.066V196.069V196.072V196.075V196.078V196.081V196.084V196.087V196.09V196.093V196.096V196.099V196.103V196.106V196.109V196.112V196.115V196.118V196.121V196.124V196.127V196.13V196.133V196.136V196.14V196.143V196.146V196.149V196.152V196.155V196.158V196.161V196.164V196.167V196.171V196.174V196.177V196.18V196.183V196.186V196.189V196.192V196.195V196.198V196.201V196.205V196.208V196.211V196.214V196.217V196.22V196.223V196.226V196.229V196.232V196.236V196.239V196.242V196.245V196.248V196.251V196.254V196.257V196.26V196.264V196.267V196.27V196.273V196.276V196.279V196.282V196.285V196.288V196.291V196.295V196.298V196.301V196.304V196.307V196.31V196.313V196.316V196.319V196.323V196.326V196.329V196.332V196.335V196.338V196.341V196.344V196.347V196.351V196.354V196.357V196.36V196.363V196.366V196.369V196.372V196.375V196.379V196.382V196.385V196.388V196.391V196.394V196.397V196.4V196.403V196.407V196.41V196.413V196.416V196.419V196.422V196.425V196.428V196.431V196.435V196.438V196.441V196.444V196.447V196.45V196.453V196.456V196.459V196.463V196.466V196.469V196.472V196.475V196.478V196.481V196.484V196.487V196.491V196.494V196.497V196.5V196.503V196.506V196.509V196.512V196.516V196.519V196.522V196.525V196.528V196.531V196.534V196.537V196.54V196.544V196.547V196.55V196.553V196.556V196.559V196.562V196.565V196.568V196.571V196.575V196.578V196.581V196.584V196.587V196.59V196.593V196.596V196.599V196.603V196.606V196.609V196.612V196.615V196.618V196.621V196.624V196.627V196.631V196.634V196.637V196.64V196.643V196.646V196.649V196.652V196.655V196.658V196.662V196.665V196.668V196.671V196.674V196.677V196.68V196.683V196.686V196.689V196.693V196.696V196.699V196.702V196.705V196.708V196.711V196.714V196.717V196.72V196.723V196.727V196.73V196.733V196.736V196.739V196.742V196.745V196.748V196.751V196.754V196.757V196.761V196.764V196.767V196.77V196.773V196.776V196.779V196.782V196.785V196.788V196.791V196.794V196.798V196.801V196.804V196.807V196.81V196.813V196.816V196.819V196.822V196.825V196.828V196.831V196.834V196.838V196.841V196.844V196.847V196.85V196.853V196.856V196.859V196.862V196.865V196.868V196.871V196.874V196.877V196.88V196.883V196.887V196.89V196.893V196.896V196.899V196.902V196.905V196.908V196.911V196.914V196.917V196.92V196.923V196.926V196.929V196.932C328.061 197.433 328.031 197.931 327.971 198.426C327.365 203.415 323.725 208.238 317.453 212.68C311.191 217.116 302.38 221.118 291.596 224.481C270.032 231.207 240.675 235.35 208.31 235.35C175.944 235.35 146.588 231.207 125.023 224.481C114.239 221.118 105.428 217.116 99.1662 212.68C92.8944 208.238 89.254 203.415 88.6486 198.426C88.5884 197.931 88.5581 197.433 88.5581 196.932L88.5581 196.414C88.5582 196.071 88.5582 195.728 88.5581 195.379C88.5581 195.379 88.5581 195.379 88.5581 195.379V118.475L207.311 158.124Z" stroke="#57C78F"/>
<path d="M315.805 196.753L315.8 136.19L315.8 135.496L315.141 135.715L213.191 169.754C210.023 170.812 206.597 170.812 203.428 169.754L101.478 135.715L100.819 135.496V136.19V182.117V182.117L100.813 196.204C100.812 196.207 100.812 196.21 100.812 196.211L100.812 196.211L100.812 196.234L100.812 196.302L100.812 196.509L100.812 196.718L100.812 196.787L100.812 196.806L100.812 196.811L100.812 196.812V196.812V196.812V196.813V197.079V197.146L100.83 197.211C100.97 197.725 101.718 199.233 105.263 201.946C109.751 205.38 117.048 209.022 127.208 212.31C147.387 218.841 176.062 223.089 208.31 223.089C240.557 223.089 269.232 218.841 289.411 212.31C299.571 209.022 306.868 205.38 311.356 201.946C314.845 199.277 315.604 197.59 315.763 197.051C315.775 197.025 315.781 197.005 315.784 196.996C315.791 196.973 315.795 196.954 315.797 196.944C315.801 196.923 315.803 196.907 315.804 196.9C315.805 196.885 315.806 196.873 315.806 196.868C315.807 196.85 315.807 196.829 315.807 196.812V196.811C315.807 196.804 315.807 196.781 315.805 196.753ZM207.311 158.124C207.959 158.34 208.66 158.34 209.308 158.124L328.061 118.475V195.379V195.381V195.384V195.387V195.39V195.393V195.395V195.398V195.401V195.404V195.407V195.41V195.412V195.415V195.418V195.421V195.424V195.426V195.429V195.432V195.435V195.438V195.441V195.443V195.446V195.449V195.452V195.455V195.458V195.461V195.463V195.466V195.469V195.472V195.475V195.478V195.481V195.483V195.486V195.489V195.492V195.495V195.498V195.501V195.503V195.506V195.509V195.512V195.515V195.518V195.521V195.524V195.527V195.529V195.532V195.535V195.538V195.541V195.544V195.547V195.55V195.553V195.555V195.558V195.561V195.564V195.567V195.57V195.573V195.576V195.579V195.582V195.585V195.587V195.59V195.593V195.596V195.599V195.602V195.605V195.608V195.611V195.614V195.617V195.62V195.623V195.625V195.628V195.631V195.634V195.637V195.64V195.643V195.646V195.649V195.652V195.655V195.658V195.661V195.664V195.667V195.67V195.673V195.676V195.679V195.681V195.684V195.687V195.69V195.693V195.696V195.699V195.702V195.705V195.708V195.711V195.714V195.717V195.72V195.723V195.726V195.729V195.732V195.735V195.738V195.741V195.744V195.747V195.75V195.753V195.756V195.759V195.762V195.765V195.768V195.771V195.774V195.777V195.78V195.783V195.786V195.789V195.792V195.795V195.798V195.801V195.804V195.807V195.81V195.813V195.816V195.819V195.822V195.825V195.828V195.831V195.834V195.837V195.84V195.843V195.846V195.849V195.852V195.855V195.858V195.861V195.864V195.867V195.87V195.873V195.876V195.879V195.882V195.885V195.888V195.891V195.894V195.897V195.9V195.904V195.907V195.91V195.913V195.916V195.919V195.922V195.925V195.928V195.931V195.934V195.937V195.94V195.943V195.946V195.949V195.952V195.955V195.958V195.961V195.964V195.967V195.971V195.974V195.977V195.98V195.983V195.986V195.989V195.992V195.995V195.998V196.001V196.004V196.007V196.01V196.013V196.016V196.02V196.023V196.026V196.029V196.032V196.035V196.038V196.041V196.044V196.047V196.05V196.053V196.056V196.059V196.063V196.066V196.069V196.072V196.075V196.078V196.081V196.084V196.087V196.09V196.093V196.096V196.099V196.103V196.106V196.109V196.112V196.115V196.118V196.121V196.124V196.127V196.13V196.133V196.136V196.14V196.143V196.146V196.149V196.152V196.155V196.158V196.161V196.164V196.167V196.171V196.174V196.177V196.18V196.183V196.186V196.189V196.192V196.195V196.198V196.201V196.205V196.208V196.211V196.214V196.217V196.22V196.223V196.226V196.229V196.232V196.236V196.239V196.242V196.245V196.248V196.251V196.254V196.257V196.26V196.264V196.267V196.27V196.273V196.276V196.279V196.282V196.285V196.288V196.291V196.295V196.298V196.301V196.304V196.307V196.31V196.313V196.316V196.319V196.323V196.326V196.329V196.332V196.335V196.338V196.341V196.344V196.347V196.351V196.354V196.357V196.36V196.363V196.366V196.369V196.372V196.375V196.379V196.382V196.385V196.388V196.391V196.394V196.397V196.4V196.403V196.407V196.41V196.413V196.416V196.419V196.422V196.425V196.428V196.431V196.435V196.438V196.441V196.444V196.447V196.45V196.453V196.456V196.459V196.463V196.466V196.469V196.472V196.475V196.478V196.481V196.484V196.487V196.491V196.494V196.497V196.5V196.503V196.506V196.509V196.512V196.516V196.519V196.522V196.525V196.528V196.531V196.534V196.537V196.54V196.544V196.547V196.55V196.553V196.556V196.559V196.562V196.565V196.568V196.571V196.575V196.578V196.581V196.584V196.587V196.59V196.593V196.596V196.599V196.603V196.606V196.609V196.612V196.615V196.618V196.621V196.624V196.627V196.631V196.634V196.637V196.64V196.643V196.646V196.649V196.652V196.655V196.658V196.662V196.665V196.668V196.671V196.674V196.677V196.68V196.683V196.686V196.689V196.693V196.696V196.699V196.702V196.705V196.708V196.711V196.714V196.717V196.72V196.723V196.727V196.73V196.733V196.736V196.739V196.742V196.745V196.748V196.751V196.754V196.757V196.761V196.764V196.767V196.77V196.773V196.776V196.779V196.782V196.785V196.788V196.791V196.794V196.798V196.801V196.804V196.807V196.81V196.813V196.816V196.819V196.822V196.825V196.828V196.831V196.834V196.838V196.841V196.844V196.847V196.85V196.853V196.856V196.859V196.862V196.865V196.868V196.871V196.874V196.877V196.88V196.883V196.887V196.89V196.893V196.896V196.899V196.902V196.905V196.908V196.911V196.914V196.917V196.92V196.923V196.926V196.929V196.932C328.061 197.433 328.031 197.931 327.971 198.426C327.365 203.415 323.725 208.238 317.453 212.68C311.191 217.116 302.38 221.118 291.596 224.481C270.032 231.207 240.675 235.35 208.31 235.35C175.944 235.35 146.588 231.207 125.023 224.481C114.239 221.118 105.428 217.116 99.1662 212.68C92.8944 208.238 89.254 203.415 88.6486 198.426C88.5884 197.931 88.5581 197.433 88.5581 196.932L88.5581 196.414C88.5582 196.071 88.5582 195.728 88.5581 195.379C88.5581 195.379 88.5581 195.379 88.5581 195.379V118.475L207.311 158.124Z" stroke="url(#paint0_linear)"/>
<path d="M16.652 70.1427L208.404 6.12142L400.156 70.1427L208.404 134.164L16.652 70.1427Z" stroke="#57C78F" stroke-width="10"/>
<ellipse cx="208.404" cy="70.1426" rx="19.892" ry="13.2613" fill="#57C78F"/>
<rect x="213.792" y="63.4276" width="157.741" height="13.2613" transform="rotate(4.00178 213.792 63.4276)" fill="#57C78F"/>
<rect x="357.693" y="75.7714" width="13.2613" height="99.1846" fill="#57C78F"/>
<ellipse cx="364.324" cy="176.815" rx="13.2613" ry="19.892" fill="#57C78F"/>
<path d="M364.324 216.551L352.839 186.712H375.808L364.324 216.551Z" fill="#57C78F"/>
<defs>
<linearGradient id="paint0_linear" x1="208.31" y1="117.781" x2="208.31" y2="235.85" gradientUnits="userSpaceOnUse">
<stop stop-color="white"/>
<stop offset="1" stop-color="white" stop-opacity="0"/>
</linearGradient>
</defs>
</svg>
