<svg width="314" height="236" viewBox="0 0 314 236" fill="none" xmlns="http://www.w3.org/2000/svg">
<path fill-rule="evenodd" clip-rule="evenodd" d="M0.911377 121.85C5.60709 138.261 21.2217 153.595 45.6923 165.444C75.3221 179.791 115.509 187.85 157.411 187.85C199.314 187.85 239.501 179.791 269.131 165.444C293.601 153.595 309.216 138.26 313.911 121.85H303.341C298.801 133.527 286.581 145.884 264.773 156.444C236.82 169.978 198.204 177.85 157.411 177.85C116.619 177.85 78.0029 169.978 50.0503 156.444C28.2417 145.884 16.0216 133.527 11.4817 121.85H0.911377Z" fill="#57C78F"/>
<rect x="5.91138" y="40.8503" width="303" height="190" rx="30" stroke="#57C78F" stroke-width="10"/>
<rect x="124.911" y="126.85" width="65" height="19" stroke="#57C78F" stroke-width="10"/>
<mask id="path-4-inside-1" fill="white">
<path fill-rule="evenodd" clip-rule="evenodd" d="M217.911 45.9085L209.254 0.850342L105.568 0.850349L96.9114 45.9085H217.911Z"/>
</mask>
<path d="M217.911 45.9085V55.9085H230.016L227.732 44.0218L217.911 45.9085ZM209.254 0.850342L219.075 -1.03642L217.516 -9.14966L209.254 -9.14966L209.254 0.850342ZM105.568 0.850349L105.568 -9.14965L97.3066 -9.14965L95.7479 -1.03641L105.568 0.850349ZM96.9114 45.9085L87.091 44.0217L84.8072 55.9085H96.9114V45.9085ZM227.732 44.0218L219.075 -1.03642L199.434 2.7371L208.091 47.7953L227.732 44.0218ZM209.254 -9.14966L105.568 -9.14965L105.568 10.8503L209.254 10.8503L209.254 -9.14966ZM95.7479 -1.03641L87.091 44.0217L106.732 47.7953L115.389 2.73711L95.7479 -1.03641ZM96.9114 55.9085H217.911V35.9085H96.9114V55.9085Z" fill="#57C78F" mask="url(#path-4-inside-1)"/>
</svg>
