<svg width="215" height="249" viewBox="0 0 215 249" fill="none" xmlns="http://www.w3.org/2000/svg">
<path d="M51.8122 7.6626L53.7033 3.03401L48.6548 0.971378L47.0372 6.17957L51.8122 7.6626ZM83.4727 30.1082L79.7713 33.4697L81.8533 35.7622L84.8332 34.9196L83.4727 30.1082ZM163.592 30.1082L162.306 34.94L165.293 35.735L167.339 33.4187L163.592 30.1082ZM195.576 7.6626L200.392 6.32007L198.996 1.31357L194.048 2.90176L195.576 7.6626ZM195.576 46.4614L190.726 45.2443L190.267 47.0721L191.129 48.748L195.576 46.4614ZM147.215 165.782L146.078 160.913L138.281 162.733L143.339 168.94L147.215 165.782ZM155.193 243.663V248.663H160.189L160.193 243.666L155.193 243.663ZM92.1953 243.663H87.1953V248.663H92.1953V243.663ZM92.1953 213.201H97.1953V207.293L91.3686 208.269L92.1953 213.201ZM13.3677 159.972L13.1719 154.976L0.167114 155.486L10.1679 163.814L13.3677 159.972ZM92.1953 190.114L94.037 194.762L97.2932 193.472L97.1932 189.971L92.1953 190.114ZM98.4395 165.782L103.05 167.717L105.224 162.537L99.8274 160.978L98.4395 165.782ZM51.8122 46.4614L56.1642 48.9232L57.243 47.016L56.572 44.9302L51.8122 46.4614ZM37.0213 91.5854L32.0213 91.5734V91.5854L37.0213 91.5854ZM209.53 91.5854L214.53 91.659L214.531 91.5766L214.53 91.4943L209.53 91.5854ZM43.477 199.781L39.7153 203.074L39.7153 203.074L43.477 199.781ZM53.7486 186.758L50.167 190.246C50.3268 190.411 50.4978 190.563 50.6786 190.704L53.7486 186.758ZM49.9212 12.2912C56.9408 15.1591 61.8791 17.7399 66.2647 20.8805C70.663 24.0301 74.6888 27.8733 79.7713 33.4697L87.1741 26.7467C81.8735 20.9102 77.3051 16.4869 72.0869 12.7501C66.8561 9.00434 61.1557 6.07879 53.7033 3.03401L49.9212 12.2912ZM84.8332 34.9196C100.656 30.4453 112.57 28.5343 124.132 28.6524C135.718 28.7707 147.233 30.9279 162.306 34.94L164.878 25.2764C149.486 21.1794 137.041 18.7837 124.234 18.6529C111.403 18.5218 98.4911 20.6654 82.1122 25.2969L84.8332 34.9196ZM167.339 33.4187C172.439 27.6468 176.249 23.6353 180.565 20.434C184.803 17.2904 189.722 14.7924 197.104 12.4234L194.048 2.90176C185.882 5.52246 179.919 8.46273 174.608 12.4023C169.374 16.2841 164.967 21.0006 159.845 26.7977L167.339 33.4187ZM190.759 9.00512C192.756 16.1678 193.612 21.5331 193.58 26.835C193.549 32.169 192.618 37.7051 190.726 45.2443L200.425 47.6786C202.399 39.8149 203.542 33.3899 203.58 26.8944C203.619 20.3668 202.542 14.0342 200.392 6.32007L190.759 9.00512ZM143.339 168.94C146.245 172.506 148.218 179.434 149.222 192.178C150.203 204.644 150.207 221.432 150.193 243.659L160.193 243.666C160.207 221.606 160.211 204.348 159.191 191.393C158.193 178.716 156.163 168.847 151.091 162.623L143.339 168.94ZM155.193 238.663H92.1953V248.663H155.193V238.663ZM97.1953 243.663V213.201H87.1953V243.663H97.1953ZM97.1932 189.971C96.9522 181.53 99.276 176.707 103.05 167.717L93.8293 163.846C90.2128 172.461 86.8842 179.29 87.1973 190.256L97.1932 189.971ZM56.572 44.9302C54.3479 38.0166 53.26 32.8908 53.2147 27.7087C53.1693 22.5217 54.1666 16.9395 56.5872 9.14563L47.0372 6.17957C44.4547 14.4946 43.1571 21.178 43.215 27.7962C43.273 34.4195 44.6867 40.6386 47.0525 47.9927L56.572 44.9302ZM99.8274 160.978C78.0055 154.673 64.0271 149.674 55.1497 140.443C46.5518 131.503 42.0213 117.71 42.0213 91.5854L32.0213 91.5854C32.0213 118.532 36.6203 135.602 47.9419 147.375C58.9838 158.857 75.7145 164.42 97.0517 170.585L99.8274 160.978ZM42.0213 91.5974C42.0603 75.3803 43.7778 68.5348 45.9551 64.1617C47.0701 61.9221 48.3916 60.1448 50.1622 57.8032C51.9155 55.4846 54.0062 52.7383 56.1642 48.9232L47.4602 43.9997C45.6619 47.1789 43.9354 49.4582 42.1859 51.7717C40.4538 54.0624 38.5869 56.5238 37.0032 59.7047C33.7831 66.1725 32.0614 74.8947 32.0213 91.5734L42.0213 91.5974ZM191.129 48.748C193.164 52.7044 195.083 55.6073 196.702 58.0758C198.335 60.5652 199.577 62.4923 200.626 64.8352C202.679 69.418 204.249 76.1962 204.531 91.6765L214.53 91.4943C214.239 75.5695 212.633 67.1788 209.753 60.7474C208.336 57.5833 206.671 55.042 205.064 52.5915C203.443 50.1201 201.789 47.6115 200.022 44.1749L191.129 48.748ZM204.531 91.5118C204.25 110.613 203.354 124.179 196.189 134.867C189.146 145.374 175.263 154.1 146.078 160.913L148.352 170.651C178.307 163.658 195.304 154.145 204.495 140.435C213.564 126.906 214.256 110.276 214.53 91.659L204.531 91.5118ZM91.3686 208.269C81.9929 209.841 71.7964 207.966 63.2392 204.948C58.9989 203.452 55.2808 201.718 52.4144 200.101C49.4028 198.402 47.7424 197.062 47.2388 196.487L39.7153 203.074C41.3731 204.968 44.2562 206.98 47.5007 208.81C50.8905 210.723 55.1414 212.696 59.9133 214.378C69.3807 217.717 81.382 220.083 93.0219 218.132L91.3686 208.269ZM47.2388 196.487C37.0091 184.804 32.7899 177.737 29.5523 172.255C26.1611 166.513 23.5251 161.925 16.5674 156.13L10.1679 163.814C15.7365 168.452 17.6583 171.78 20.9417 177.34C24.3787 183.16 28.951 190.781 39.7153 203.074L47.2388 196.487ZM13.5634 164.969C18.5711 164.772 21.3949 164.714 23.5086 165.018C25.2718 165.272 26.4543 165.768 27.9929 166.972C29.7935 168.381 31.9003 170.613 35.4744 174.533C38.9525 178.349 43.5767 183.481 50.167 190.246L57.3303 183.269C50.8751 176.642 46.3624 171.634 42.8647 167.797C39.4631 164.065 36.7554 161.131 34.1555 159.097C31.2935 156.857 28.4895 155.632 24.9329 155.12C21.7268 154.659 17.8976 154.791 13.1719 154.976L13.5634 164.969ZM50.6786 190.704C65.1835 201.988 80.7832 200.014 94.037 194.762L90.3535 185.465C78.7485 190.063 67.3696 191.019 56.8187 182.811L50.6786 190.704Z" fill="#57C78F"/>
</svg>
