<svg width="398" height="408" viewBox="0 0 398 408" fill="none" xmlns="http://www.w3.org/2000/svg">
<rect x="147.266" y="199.565" width="71.1888" height="181.548" fill="white"/>
<circle cx="334.871" cy="344.37" r="63" fill="#57C78F"/>
<line x1="337.229" y1="303.833" x2="337.229" y2="384.908" stroke="white" stroke-width="10"/>
<line x1="296.328" y1="343.01" x2="377.404" y2="343.01" stroke="white" stroke-width="10"/>
<path fill-rule="evenodd" clip-rule="evenodd" d="M117.872 65.4231C117.872 29.7894 146.759 0.902588 182.392 0.902588H187.001C222.635 0.902588 251.522 29.7894 251.522 65.4231V81.4899L251.522 81.5533V146.074C251.522 154.251 246.198 161.184 238.827 163.597V203.991C295.397 214.304 341.914 240.05 366.737 273.726V278.674C357.108 273.995 346.296 271.37 334.871 271.37C294.554 271.37 261.871 304.054 261.871 344.37C261.871 357.767 265.48 370.321 271.778 381.113L183.544 381.113L216.957 344.606L188.633 221.452C193.068 220.01 196.629 216.877 198.394 212.899C193.725 213.394 188.733 213.669 183.544 213.683C178.356 213.669 173.364 213.394 168.694 212.899C170.46 216.877 174.021 220.01 178.456 221.452L150.132 344.606L183.544 381.113L0.352295 381.113V325.81V311.984V273.726C25.4921 239.62 72.8815 213.649 130.43 203.604V163.552C123.13 161.098 117.872 154.2 117.872 146.074V88.4662H117.872V65.4231Z" fill="#57C78F"/>
</svg>
