<svg width="245" height="234" viewBox="0 0 245 234" fill="none" xmlns="http://www.w3.org/2000/svg">
<path d="M14.3764 53.3975L14.3955 53.4155L14.4148 53.4333C20.2606 58.8205 27.6758 61.3658 36.2251 61.3658C44.8087 61.3658 52.2342 58.9018 58.0141 53.5934C63.8905 48.2844 66.8188 41.383 66.8188 33.3033C66.8188 25.2924 63.8707 18.47 57.9733 13.2577C52.1906 8.06239 44.7796 5.66272 36.2251 5.66272C27.7338 5.66272 20.3468 8.07841 14.4951 13.2417C8.58559 18.4559 5.63135 25.2842 5.63135 33.3033C5.63135 41.174 8.6083 47.9687 14.3764 53.3975ZM58.1626 228.147H63.1626V223.147V79.1471V74.1471H58.1626H13.7251H8.7251V79.1471V223.147V228.147H13.7251H58.1626ZM234.647 228.147H239.647V223.147V134.975C239.647 114.654 235.575 98.4858 226.587 87.3305C217.433 75.9686 203.863 70.6315 186.834 70.6315C169.832 70.6315 155.804 76.4134 145.006 87.7948V79.1471V74.1471H140.006H95.5688H90.5688V79.1471V223.147V228.147H95.5688H140.006H145.006V223.147V141.022C145.006 132.886 147.206 126.591 151.286 121.741C155.309 116.959 160.239 114.663 166.444 114.663C173.098 114.663 177.421 116.899 180.305 120.936C183.41 125.283 185.35 132.419 185.35 143.131V223.147V228.147H190.35H234.647Z" stroke="#57C78F" stroke-width="10"/>
</svg>
