<svg width="513" height="421" viewBox="0 0 513 421" fill="none" xmlns="http://www.w3.org/2000/svg">
<rect x="5.21387" y="5.8775" width="502" height="410" rx="30" stroke="#57C78F" stroke-width="10"/>
<line x1="6.21387" y1="66.8774" x2="512.214" y2="66.8774" stroke="#57C78F" stroke-width="10"/>
<line x1="29.2139" y1="37.8775" x2="362.214" y2="37.8775" stroke="#57C78F" stroke-width="10"/>
<line x1="402.214" y1="37.8775" x2="412.214" y2="37.8775" stroke="#57C78F" stroke-width="10"/>
<line x1="425.214" y1="37.8775" x2="435.214" y2="37.8775" stroke="#57C78F" stroke-width="10"/>
<line x1="448.214" y1="37.8775" x2="458.214" y2="37.8775" stroke="#57C78F" stroke-width="10"/>
<path fill-rule="evenodd" clip-rule="evenodd" d="M102.714 244.136C107.41 260.547 123.024 275.882 147.495 287.73C177.125 302.077 217.311 310.136 259.214 310.136C301.117 310.136 341.303 302.077 370.933 287.73C395.404 275.882 411.018 260.547 415.714 244.136H405.144C400.604 255.813 388.384 268.17 366.575 278.73C338.622 292.264 300.006 300.136 259.214 300.136C218.421 300.136 179.805 292.264 151.853 278.73C130.044 268.17 117.824 255.813 113.284 244.136H102.714Z" fill="#57C78F"/>
<rect x="107.714" y="163.136" width="303" height="190" rx="30" stroke="#57C78F" stroke-width="10"/>
<rect x="226.714" y="249.136" width="65" height="19" stroke="#57C78F" stroke-width="10"/>
<mask id="path-10-inside-1" fill="white">
<path fill-rule="evenodd" clip-rule="evenodd" d="M319.714 168.195L311.057 123.136L207.371 123.136L198.714 168.195H319.714Z"/>
</mask>
<path d="M319.714 168.195V178.195H331.818L329.534 166.308L319.714 168.195ZM311.057 123.136L320.877 121.25L319.319 113.136L311.057 113.136V123.136ZM207.371 123.136V113.136L199.109 113.136L197.55 121.25L207.371 123.136ZM198.714 168.195L188.893 166.308L186.61 178.195H198.714V168.195ZM329.534 166.308L320.877 121.25L301.237 125.023L309.893 170.081L329.534 166.308ZM311.057 113.136L207.371 113.136L207.371 133.136L311.057 133.136V113.136ZM197.55 121.25L188.893 166.308L208.534 170.081L217.191 125.023L197.55 121.25ZM198.714 178.195H319.714V158.195H198.714V178.195Z" fill="#57C78F" mask="url(#path-10-inside-1)"/>
</svg>
