<svg width="149" height="247" viewBox="0 0 149 247" fill="none" xmlns="http://www.w3.org/2000/svg">
<path d="M9.38117 47.8506H139.547M9.38117 199.85H139.547M68.8201 217.671H80.0622M40.2686 241.937H108.613C127.943 241.937 143.613 226.266 143.613 206.936V40.7644C143.613 21.4344 127.943 5.7644 108.613 5.7644H40.2686C20.9386 5.7644 5.26855 21.4345 5.26855 40.7644V206.937C5.26855 226.266 20.9386 241.937 40.2686 241.937ZM79.4409 29.2573C79.4409 32.0187 77.2023 34.2573 74.4409 34.2573C71.6795 34.2573 69.4409 32.0187 69.4409 29.2573C69.4409 26.4959 71.6795 24.2573 74.4409 24.2573C77.2023 24.2573 79.4409 26.4959 79.4409 29.2573Z" stroke="#57C78F" stroke-width="10" stroke-linecap="round"/>
</svg>
