<svg width="364" height="401" viewBox="0 0 364 401" fill="none" xmlns="http://www.w3.org/2000/svg">
<path d="M260.677 265.075H307.718V376.075H260.677V265.075Z" fill="#57C78F"/>
<path d="M255.227 270.075C255.227 265.656 258.809 262.075 263.227 262.075H305.227C309.645 262.075 313.227 265.656 313.227 270.075V298.075C313.227 302.493 309.645 306.075 305.227 306.075H263.227C258.809 306.075 255.227 302.493 255.227 298.075V270.075Z" fill="#57C78F"/>
<path d="M363.227 376.075V353.472C349.108 334.317 318.817 321.075 283.727 321.075C248.637 321.075 218.346 334.317 204.227 353.472V376.075H363.227Z" fill="#57C78F"/>
<path d="M255.227 263.075C255.227 247.611 267.763 235.075 283.227 235.075H285.227C300.691 235.075 313.227 247.611 313.227 263.075C313.227 278.539 300.691 291.075 285.227 291.075H283.227C267.763 291.075 255.227 278.539 255.227 263.075Z" fill="#57C78F"/>
<path d="M204.227 370.075H363.227V400.075H204.227V370.075Z" fill="#57C78F"/>
<path d="M255.227 263.075H313.227V273.075H255.227V263.075Z" fill="#57C78F"/>
<path d="M283.727 327.415C281.475 327.409 279.309 327.29 277.283 327.075C278.049 328.801 279.594 330.161 281.519 330.787L269.227 384.232L283.727 400.075V327.415Z" fill="white"/>
<path d="M283.727 327.415C285.979 327.409 288.145 327.29 290.171 327.075C289.405 328.801 287.86 330.161 285.935 330.787L298.227 384.232L283.727 400.075V327.415Z" fill="white"/>
<path fill-rule="evenodd" clip-rule="evenodd" d="M0.200684 86.8873V329.864C0.200684 349.193 15.8707 364.864 35.2006 364.864H193.988V354.864H35.2006C21.3935 354.864 10.2007 343.671 10.2007 329.864V91.9408H56.5628C75.8928 91.9408 91.5628 76.2707 91.5628 56.9407V10.5786H261.401C275.208 10.5786 286.401 21.7715 286.401 35.5786V225.919H286.757C290.084 225.919 293.314 226.221 296.401 226.79V35.5786C296.401 16.2486 280.731 0.578613 261.401 0.578613H86.5094L0.200684 86.8873ZM236.243 319.322C238.825 318.804 241.452 318.326 244.12 317.89C245.044 316.982 245.617 315.719 245.617 314.322C245.617 311.561 243.378 309.322 240.617 309.322H55.9841C53.2227 309.322 50.9841 311.561 50.9841 314.322C50.9841 317.083 53.2227 319.322 55.9841 319.322H236.243ZM244.511 273.224V266.951C243.594 265.814 242.19 265.087 240.617 265.087H55.9841C53.2227 265.087 50.9841 267.326 50.9841 270.087C50.9841 272.849 53.2227 275.087 55.9841 275.087H240.617C242.19 275.087 243.594 274.36 244.511 273.224ZM119.548 93.1486C119.548 90.3872 121.787 88.1486 124.548 88.1486L240.617 88.1486C243.378 88.1486 245.617 90.3872 245.617 93.1486C245.617 95.91 243.378 98.1486 240.617 98.1486L124.548 98.1486C121.787 98.1486 119.548 95.91 119.548 93.1486ZM50.9841 137.383C50.9841 134.622 53.2227 132.383 55.9841 132.383H240.617C243.378 132.383 245.617 134.622 245.617 137.383C245.617 140.145 243.378 142.383 240.617 142.383H55.9841C53.2227 142.383 50.9841 140.145 50.9841 137.383ZM50.9841 181.618C50.9841 178.857 53.2227 176.618 55.9841 176.618H240.617C243.378 176.618 245.617 178.857 245.617 181.618C245.617 184.379 243.378 186.618 240.617 186.618H55.9841C53.2227 186.618 50.9841 184.379 50.9841 181.618ZM50.9841 225.853C50.9841 223.091 53.2227 220.853 55.9841 220.853H240.617C243.378 220.853 245.617 223.091 245.617 225.853C245.617 228.614 243.378 230.853 240.617 230.853H55.9841C53.2227 230.853 50.9841 228.614 50.9841 225.853Z" fill="#57C78F"/>
</svg>
