<svg width="321" height="236" viewBox="0 0 321 236" fill="none" xmlns="http://www.w3.org/2000/svg">
<path fill-rule="evenodd" clip-rule="evenodd" d="M126.884 94.6029L143.573 98.7861C148.56 94.2149 154.539 90.7082 161.15 88.6258L165.869 72.089C168.932 71.6235 172.069 71.3822 175.261 71.3822C178.454 71.3822 181.59 71.6235 184.653 72.0889L189.372 88.6256C195.983 90.708 201.962 94.2147 206.95 98.786L223.638 94.6028C227.547 99.4733 230.736 104.947 233.043 110.861L221.073 123.225C221.795 126.495 222.175 129.893 222.175 133.38C222.175 136.867 221.795 140.265 221.073 143.535L233.043 155.899C230.736 161.814 227.547 167.287 223.638 172.157L206.95 167.974C201.962 172.545 195.983 176.052 189.372 178.135L184.653 194.671C181.59 195.137 178.454 195.378 175.261 195.378C172.069 195.378 168.932 195.137 165.869 194.671L161.15 178.134C154.539 176.052 148.56 172.545 143.573 167.974L126.884 172.157C122.975 167.287 119.786 161.813 117.479 155.899L129.45 143.534C128.728 140.265 128.348 136.867 128.348 133.38C128.348 129.893 128.728 126.496 129.449 123.226L117.48 110.862C119.786 104.947 122.975 99.4735 126.884 94.6029ZM175.261 151.468C185.251 151.468 193.349 143.37 193.349 133.38C193.349 123.391 185.251 115.292 175.261 115.292C165.272 115.292 157.174 123.391 157.174 133.38C157.174 143.37 165.272 151.468 175.261 151.468Z" fill="#57C78F"/>
<path fill-rule="evenodd" clip-rule="evenodd" d="M126.884 94.6029L143.573 98.7861C148.56 94.2149 154.539 90.7082 161.15 88.6258L165.869 72.089C168.932 71.6235 172.069 71.3822 175.261 71.3822C178.454 71.3822 181.59 71.6235 184.653 72.0889L189.372 88.6256C195.983 90.708 201.962 94.2147 206.95 98.786L223.638 94.6028C227.547 99.4733 230.736 104.947 233.043 110.861L221.073 123.225C221.795 126.495 222.175 129.893 222.175 133.38C222.175 136.867 221.795 140.265 221.073 143.535L233.043 155.899C230.736 161.814 227.547 167.287 223.638 172.157L206.95 167.974C201.962 172.545 195.983 176.052 189.372 178.135L184.653 194.671C181.59 195.137 178.454 195.378 175.261 195.378C172.069 195.378 168.932 195.137 165.869 194.671L161.15 178.134C154.539 176.052 148.56 172.545 143.573 167.974L126.884 172.157C122.975 167.287 119.786 161.813 117.479 155.899L129.45 143.534C128.728 140.265 128.348 136.867 128.348 133.38C128.348 129.893 128.728 126.496 129.449 123.226L117.48 110.862C119.786 104.947 122.975 99.4735 126.884 94.6029ZM175.261 151.468C185.251 151.468 193.349 143.37 193.349 133.38C193.349 123.391 185.251 115.292 175.261 115.292C165.272 115.292 157.174 123.391 157.174 133.38C157.174 143.37 165.272 151.468 175.261 151.468Z" fill="#57C78F"/>
<path fill-rule="evenodd" clip-rule="evenodd" d="M126.884 94.6029L143.573 98.7861C148.56 94.2149 154.539 90.7082 161.15 88.6258L165.869 72.089C168.932 71.6235 172.069 71.3822 175.261 71.3822C178.454 71.3822 181.59 71.6235 184.653 72.0889L189.372 88.6256C195.983 90.708 201.962 94.2147 206.95 98.786L223.638 94.6028C227.547 99.4733 230.736 104.947 233.043 110.861L221.073 123.225C221.795 126.495 222.175 129.893 222.175 133.38C222.175 136.867 221.795 140.265 221.073 143.535L233.043 155.899C230.736 161.814 227.547 167.287 223.638 172.157L206.95 167.974C201.962 172.545 195.983 176.052 189.372 178.135L184.653 194.671C181.59 195.137 178.454 195.378 175.261 195.378C172.069 195.378 168.932 195.137 165.869 194.671L161.15 178.134C154.539 176.052 148.56 172.545 143.573 167.974L126.884 172.157C122.975 167.287 119.786 161.813 117.479 155.899L129.45 143.534C128.728 140.265 128.348 136.867 128.348 133.38C128.348 129.893 128.728 126.496 129.449 123.226L117.48 110.862C119.786 104.947 122.975 99.4735 126.884 94.6029ZM175.261 151.468C185.251 151.468 193.349 143.37 193.349 133.38C193.349 123.391 185.251 115.292 175.261 115.292C165.272 115.292 157.174 123.391 157.174 133.38C157.174 143.37 165.272 151.468 175.261 151.468Z" fill="#57C78F"/>
<path fill-rule="evenodd" clip-rule="evenodd" d="M35.2695 0.362915C15.9396 0.362915 0.269531 16.033 0.269531 35.3629V53.943L2.60436 53.8018C7.6615 40.6952 20.3797 31.3973 35.2695 31.3973H156.453L126.389 0.362915H35.2695Z" fill="#E2A7A7"/>
<rect x="5.26953" y="36.3973" width="310.284" height="193.966" rx="30" stroke="#57C78F" stroke-width="10"/>
</svg>
