<svg width="271" height="213" viewBox="0 0 271 213" fill="none" xmlns="http://www.w3.org/2000/svg">
<path d="M259.864 31.9862V193.439H10.8638V31.9862L19.1702 19.0199H15.4377C7.1535 19.0199 0.437744 25.7356 0.437744 34.0199V188.042C0.437744 196.327 7.1535 203.042 15.4377 203.042H255.29C263.574 203.042 270.29 196.327 270.29 188.042V34.0199C270.29 25.7357 263.574 19.0199 255.29 19.0199H251.557L259.864 31.9862Z" fill="#E2A7A7"/>
<path d="M133.397 25.1786C169.768 10.1107 192.625 6.16867 237.014 5.58716M237.014 5.58716L254.864 33.4504V188.439M237.014 5.58716V169.283M254.864 188.439L237.014 169.283M254.864 188.439H133.397C170.93 172.847 193.266 167.673 237.014 169.283" stroke="#57C78F" stroke-width="10"/>
<path d="M137.33 25.1786C100.96 10.1107 78.1026 6.16867 33.7135 5.58716M33.7135 5.58716L15.8638 33.4504V188.439M33.7135 5.58716V169.283M15.8638 188.439L33.7135 169.283M15.8638 188.439H137.33C99.7979 172.847 77.4618 167.673 33.7135 169.283" stroke="#57C78F" stroke-width="10"/>
<ellipse cx="135.364" cy="202.712" rx="17.8707" ry="10.0525" fill="#E2A7A7"/>
<path fill-rule="evenodd" clip-rule="evenodd" d="M88.9529 60.7713L105.641 64.9544C110.629 60.3833 116.608 56.8765 123.219 54.7941L127.938 38.2573C131.001 37.7919 134.137 37.5505 137.33 37.5505C140.523 37.5505 143.659 37.7918 146.721 38.2572L151.441 54.7939C158.052 56.8763 164.031 60.3831 169.019 64.9543L185.707 60.7712C189.616 65.6417 192.805 71.1151 195.112 77.0297L183.142 89.3937C183.863 92.6636 184.244 96.0616 184.244 99.5484C184.244 103.035 183.863 106.433 183.142 109.703L195.112 122.067C192.805 127.982 189.616 133.455 185.707 138.326L169.019 134.143C164.031 138.714 158.052 142.22 151.441 144.303L146.721 160.84C143.659 161.305 140.523 161.546 137.33 161.546C134.137 161.546 131.001 161.305 127.938 160.84L123.219 144.303C116.608 142.22 110.629 138.714 105.642 134.142L88.9529 138.326C85.0438 133.455 81.8551 127.982 79.5483 122.067L91.5184 109.703C90.7969 106.433 90.4165 103.035 90.4165 99.5484C90.4165 96.0617 90.7968 92.6639 91.5183 89.3942L79.5484 77.03C81.8551 71.1153 85.0439 65.6418 88.9529 60.7713ZM137.33 117.636C147.32 117.636 155.418 109.538 155.418 99.5485C155.418 89.5589 147.32 81.4608 137.33 81.4608C127.341 81.4608 119.242 89.5589 119.242 99.5485C119.242 109.538 127.341 117.636 137.33 117.636Z" fill="#57C78F"/>
<path fill-rule="evenodd" clip-rule="evenodd" d="M88.9529 60.7713L105.641 64.9544C110.629 60.3833 116.608 56.8765 123.219 54.7941L127.938 38.2573C131.001 37.7919 134.137 37.5505 137.33 37.5505C140.523 37.5505 143.659 37.7918 146.721 38.2572L151.441 54.7939C158.052 56.8763 164.031 60.3831 169.019 64.9543L185.707 60.7712C189.616 65.6417 192.805 71.1151 195.112 77.0297L183.142 89.3937C183.863 92.6636 184.244 96.0616 184.244 99.5484C184.244 103.035 183.863 106.433 183.142 109.703L195.112 122.067C192.805 127.982 189.616 133.455 185.707 138.326L169.019 134.143C164.031 138.714 158.052 142.22 151.441 144.303L146.721 160.84C143.659 161.305 140.523 161.546 137.33 161.546C134.137 161.546 131.001 161.305 127.938 160.84L123.219 144.303C116.608 142.22 110.629 138.714 105.642 134.142L88.9529 138.326C85.0438 133.455 81.8551 127.982 79.5483 122.067L91.5184 109.703C90.7969 106.433 90.4165 103.035 90.4165 99.5484C90.4165 96.0617 90.7968 92.6639 91.5183 89.3942L79.5484 77.03C81.8551 71.1153 85.0439 65.6418 88.9529 60.7713ZM137.33 117.636C147.32 117.636 155.418 109.538 155.418 99.5485C155.418 89.5589 147.32 81.4608 137.33 81.4608C127.341 81.4608 119.242 89.5589 119.242 99.5485C119.242 109.538 127.341 117.636 137.33 117.636Z" fill="#57C78F"/>
<path fill-rule="evenodd" clip-rule="evenodd" d="M88.9529 60.7713L105.641 64.9544C110.629 60.3833 116.608 56.8765 123.219 54.7941L127.938 38.2573C131.001 37.7919 134.137 37.5505 137.33 37.5505C140.523 37.5505 143.659 37.7918 146.721 38.2572L151.441 54.7939C158.052 56.8763 164.031 60.3831 169.019 64.9543L185.707 60.7712C189.616 65.6417 192.805 71.1151 195.112 77.0297L183.142 89.3937C183.863 92.6636 184.244 96.0616 184.244 99.5484C184.244 103.035 183.863 106.433 183.142 109.703L195.112 122.067C192.805 127.982 189.616 133.455 185.707 138.326L169.019 134.143C164.031 138.714 158.052 142.22 151.441 144.303L146.721 160.84C143.659 161.305 140.523 161.546 137.33 161.546C134.137 161.546 131.001 161.305 127.938 160.84L123.219 144.303C116.608 142.22 110.629 138.714 105.642 134.142L88.9529 138.326C85.0438 133.455 81.8551 127.982 79.5483 122.067L91.5184 109.703C90.7969 106.433 90.4165 103.035 90.4165 99.5484C90.4165 96.0617 90.7968 92.6639 91.5183 89.3942L79.5484 77.03C81.8551 71.1153 85.0439 65.6418 88.9529 60.7713ZM137.33 117.636C147.32 117.636 155.418 109.538 155.418 99.5485C155.418 89.5589 147.32 81.4608 137.33 81.4608C127.341 81.4608 119.242 89.5589 119.242 99.5485C119.242 109.538 127.341 117.636 137.33 117.636Z" fill="#57C78F"/>
</svg>
