<svg width="314" height="236" viewBox="0 0 314 236" fill="none" xmlns="http://www.w3.org/2000/svg">
<path fill-rule="evenodd" clip-rule="evenodd" d="M108.987 73.7598L125.675 77.943C130.663 73.3718 136.642 69.8651 143.253 67.7826L147.972 51.2458C151.035 50.7804 154.171 50.5391 157.364 50.5391C160.556 50.5391 163.693 50.7804 166.755 51.2458L171.475 67.7824C178.086 69.8648 184.065 73.3716 189.053 77.9429L205.741 73.7597C209.65 78.6302 212.839 84.1036 215.145 90.0183L203.176 102.382C203.897 105.652 204.278 109.05 204.278 112.537C204.278 116.024 203.897 119.422 203.176 122.692L215.145 135.056C212.839 140.97 209.65 146.444 205.741 151.314L189.052 147.131C184.065 151.702 178.086 155.209 171.475 157.291L166.755 173.828C163.693 174.294 160.556 174.535 157.364 174.535C154.171 174.535 151.035 174.294 147.972 173.828L143.253 157.291C136.642 155.209 130.663 151.702 125.675 147.131L108.987 151.314C105.078 146.444 101.889 140.97 99.582 135.055L111.552 122.691C110.831 119.421 110.45 116.024 110.45 112.537C110.45 109.05 110.831 105.652 111.552 102.383L99.582 90.0186C101.889 84.1038 105.078 78.6304 108.987 73.7598ZM157.364 130.625C167.353 130.625 175.452 122.527 175.452 112.537C175.452 102.547 167.353 94.4493 157.364 94.4493C147.374 94.4493 139.276 102.547 139.276 112.537C139.276 122.527 147.374 130.625 157.364 130.625Z" fill="#57C78F"/>
<path fill-rule="evenodd" clip-rule="evenodd" d="M108.987 73.7598L125.675 77.943C130.663 73.3718 136.642 69.8651 143.253 67.7826L147.972 51.2458C151.035 50.7804 154.171 50.5391 157.364 50.5391C160.556 50.5391 163.693 50.7804 166.755 51.2458L171.475 67.7824C178.086 69.8648 184.065 73.3716 189.053 77.9429L205.741 73.7597C209.65 78.6302 212.839 84.1036 215.145 90.0183L203.176 102.382C203.897 105.652 204.278 109.05 204.278 112.537C204.278 116.024 203.897 119.422 203.176 122.692L215.145 135.056C212.839 140.97 209.65 146.444 205.741 151.314L189.052 147.131C184.065 151.702 178.086 155.209 171.475 157.291L166.755 173.828C163.693 174.294 160.556 174.535 157.364 174.535C154.171 174.535 151.035 174.294 147.972 173.828L143.253 157.291C136.642 155.209 130.663 151.702 125.675 147.131L108.987 151.314C105.078 146.444 101.889 140.97 99.582 135.055L111.552 122.691C110.831 119.421 110.45 116.024 110.45 112.537C110.45 109.05 110.831 105.652 111.552 102.383L99.582 90.0186C101.889 84.1038 105.078 78.6304 108.987 73.7598ZM157.364 130.625C167.353 130.625 175.452 122.527 175.452 112.537C175.452 102.547 167.353 94.4493 157.364 94.4493C147.374 94.4493 139.276 102.547 139.276 112.537C139.276 122.527 147.374 130.625 157.364 130.625Z" fill="#57C78F"/>
<path fill-rule="evenodd" clip-rule="evenodd" d="M108.987 73.7598L125.675 77.943C130.663 73.3718 136.642 69.8651 143.253 67.7826L147.972 51.2458C151.035 50.7804 154.171 50.5391 157.364 50.5391C160.556 50.5391 163.693 50.7804 166.755 51.2458L171.475 67.7824C178.086 69.8648 184.065 73.3716 189.053 77.9429L205.741 73.7597C209.65 78.6302 212.839 84.1036 215.145 90.0183L203.176 102.382C203.897 105.652 204.278 109.05 204.278 112.537C204.278 116.024 203.897 119.422 203.176 122.692L215.145 135.056C212.839 140.97 209.65 146.444 205.741 151.314L189.052 147.131C184.065 151.702 178.086 155.209 171.475 157.291L166.755 173.828C163.693 174.294 160.556 174.535 157.364 174.535C154.171 174.535 151.035 174.294 147.972 173.828L143.253 157.291C136.642 155.209 130.663 151.702 125.675 147.131L108.987 151.314C105.078 146.444 101.889 140.97 99.582 135.055L111.552 122.691C110.831 119.421 110.45 116.024 110.45 112.537C110.45 109.05 110.831 105.652 111.552 102.383L99.582 90.0186C101.889 84.1038 105.078 78.6304 108.987 73.7598ZM157.364 130.625C167.353 130.625 175.452 122.527 175.452 112.537C175.452 102.547 167.353 94.4493 157.364 94.4493C147.374 94.4493 139.276 102.547 139.276 112.537C139.276 122.527 147.374 130.625 157.364 130.625Z" fill="#57C78F"/>
<path fill-rule="evenodd" clip-rule="evenodd" d="M105.539 0.298584H109.671H205.129H209.266L210.041 4.36274L215.947 35.363H278.864C298.194 35.363 313.864 51.0331 313.864 70.363V200.363C313.864 219.693 298.194 235.363 278.864 235.363H35.8638C16.5338 235.363 0.86377 219.693 0.86377 200.363V70.363C0.86377 51.0331 16.5338 35.363 35.8638 35.363H98.8078L104.76 4.35593L105.539 0.298584ZM200.992 10.2986L205.767 35.363H108.99L113.802 10.2986H200.992ZM278.864 45.363H35.8638C22.0567 45.363 10.8638 56.5559 10.8638 70.363V123.602L10.9856 123.517C24.2364 142.447 46.4456 156.254 73.5439 165.126C100.592 173.982 132.084 177.773 163.252 176.987C194.42 176.202 225.024 170.846 250.281 161.598C275.094 152.512 294.102 139.911 303.864 124.834V70.363C303.864 56.5559 292.671 45.363 278.864 45.363ZM303.864 140.79C291.71 153.457 274.07 163.536 253.72 170.988C227.275 180.671 195.569 186.176 163.504 186.984C131.439 187.792 98.7755 183.909 70.4324 174.63C46.7715 166.883 25.8202 155.271 10.8638 139.205V200.363C10.8638 214.17 22.0567 225.363 35.8638 225.363H278.864C292.671 225.363 303.864 214.17 303.864 200.363V140.79Z" fill="#57C78F"/>
</svg>
