<svg width="225" height="187" viewBox="0 0 225 187" fill="none" xmlns="http://www.w3.org/2000/svg">
<path d="M18.6556 12.6351L22.0415 8.95604C20.9272 7.9305 19.4082 7.46524 17.9107 7.69085C16.4132 7.91645 15.0986 8.8086 14.336 10.1169L18.6556 12.6351ZM105.682 56.7786L105.496 61.7751C106.853 61.8257 108.173 61.3218 109.151 60.3793C110.129 59.4368 110.682 58.137 110.682 56.7786H105.682ZM185.799 17.6343L183.112 21.8506C184.34 22.6335 185.848 22.8419 187.243 22.4213L185.799 17.6343ZM213.492 9.28225L217.965 11.5183C218.857 9.73295 218.603 7.58769 217.317 6.06103C216.031 4.53437 213.96 3.91885 212.049 4.49522L213.492 9.28225ZM203.162 29.9423L198.69 27.7062C197.83 29.4268 198.033 31.4884 199.213 33.008C200.392 34.5277 202.339 35.2359 204.219 34.8293L203.162 29.9423ZM219.427 26.4257L224.191 27.9433C224.732 26.2431 224.327 24.3833 223.127 23.0628C221.927 21.7424 220.114 21.1616 218.37 21.5386L219.427 26.4257ZM199.33 51.4184L195.936 47.7468C194.913 48.692 194.331 50.0207 194.33 51.4131L199.33 51.4184ZM5.85156 159.275L5.41949 154.293C3.58621 154.452 1.98844 155.606 1.26 157.295C0.531561 158.985 0.790191 160.939 1.9333 162.381L5.85156 159.275ZM61.5382 144.751L64.2092 148.978C65.7774 147.987 66.668 146.209 66.5228 144.36C66.3777 142.51 65.2205 140.893 63.5169 140.159L61.5382 144.751ZM26.3363 111.669L24.1328 107.181C22.0382 108.209 20.9334 110.55 21.4706 112.82L26.3363 111.669ZM38.0212 110.515L36.6158 115.314C38.968 116.003 41.4728 114.885 42.5311 112.674C43.5894 110.463 42.8892 107.812 40.8775 106.411L38.0212 110.515ZM12.6647 66.2381L11.6819 61.3357C9.51521 61.77 7.89059 63.5752 7.68617 65.7756L12.6647 66.2381ZM24.3313 69.7066L21.6347 73.9171C23.6318 75.1961 26.2526 74.8962 27.9092 73.1992C29.5657 71.5022 29.8023 68.875 28.4756 66.9093L24.3313 69.7066ZM15.2696 16.3141C33.7281 33.3024 48.069 44.4293 61.9556 51.4132C75.9963 58.4745 89.3115 61.1724 105.496 61.7751L105.868 51.7821C90.7447 51.2189 78.9117 48.7472 66.4486 42.4793C53.8315 36.134 40.313 25.7722 22.0415 8.95604L15.2696 16.3141ZM110.682 56.7786C110.682 34.4777 119.975 20.3707 132.833 14.3417C145.87 8.22831 164.062 9.70819 183.112 21.8506L188.487 13.418C167.455 0.0118899 145.588 -2.68422 128.587 5.28763C111.407 13.3438 100.682 31.5832 100.682 56.7786H110.682ZM187.243 22.4213L214.936 14.0693L212.049 4.49522L184.355 12.8473L187.243 22.4213ZM209.02 7.04618L198.69 27.7062L207.635 32.1783L217.965 11.5183L209.02 7.04618ZM204.219 34.8293L220.483 31.3128L218.37 21.5386L202.106 25.0552L204.219 34.8293ZM214.663 24.9082C213.102 29.8086 209.255 35.4346 195.936 47.7468L202.724 55.09C216.064 42.7584 221.757 35.583 224.191 27.9433L214.663 24.9082ZM194.33 51.4131C194.259 117.393 156.486 153.978 114.322 168.9C93.1261 176.401 70.8789 178.385 51.8727 175.798C32.7123 173.19 17.614 166.064 9.76983 156.169L1.9333 162.381C12.0286 175.116 30.0666 182.922 50.524 185.706C71.1357 188.512 94.988 186.35 117.658 178.327C163.227 162.2 204.254 122.226 204.33 51.4238L194.33 51.4131ZM6.28363 164.256C19.2892 163.128 28.384 162.915 36.5784 161.229C45.1799 159.46 52.9399 156.099 64.2092 148.978L58.8672 140.524C48.2145 147.256 41.5939 149.989 34.564 151.434C27.1269 152.964 19.3394 153.086 5.41949 154.293L6.28363 164.256ZM63.5169 140.159C52.7699 135.528 45.6849 131.91 40.7463 127.571C36.0523 123.446 33.0816 118.463 31.202 110.518L21.4706 112.82C23.7453 122.435 27.6432 129.369 34.1454 135.083C40.4029 140.581 48.8417 144.724 59.5595 149.343L63.5169 140.159ZM28.5398 116.158C30.295 115.296 31.3118 114.919 32.2925 114.781C33.2073 114.652 34.4644 114.683 36.6158 115.314L39.4267 105.717C36.3075 104.803 33.5778 104.501 30.8955 104.879C28.2793 105.248 26.0889 106.221 24.1328 107.181L28.5398 116.158ZM40.8775 106.411C30.6226 99.274 24.5867 94.0775 21.1639 88.4578C17.9036 83.1049 16.7035 76.8161 17.6433 66.7007L7.68617 65.7756C6.63341 77.1073 7.84206 85.8095 12.6234 93.6596C17.2422 101.243 24.8808 107.461 35.165 114.619L40.8775 106.411ZM13.6475 71.1406C14.8545 70.8986 15.5116 70.9194 16.3207 71.1484C17.3531 71.4406 18.8836 72.1552 21.6347 73.9171L27.0278 65.496C24.0758 63.6055 21.5374 62.2322 19.0444 61.5265C16.3282 60.7575 14.0035 60.8703 11.6819 61.3357L13.6475 71.1406ZM28.4756 66.9093C20.7549 55.4707 16.8361 47.3554 15.966 39.8916C15.1228 32.6595 17.0706 25.2819 22.9752 15.1532L14.336 10.1169C7.85636 21.232 4.84232 30.8346 6.03324 41.0496C7.19714 51.0329 12.3084 60.8314 20.187 72.5039L28.4756 66.9093Z" fill="#57C78F"/>
</svg>
