<svg width="513" height="421" viewBox="0 0 513 421" fill="none" xmlns="http://www.w3.org/2000/svg">
<rect x="5.21387" y="5.87646" width="502" height="410" rx="30" stroke="#57C78F" stroke-width="10"/>
<line x1="6.21387" y1="66.8765" x2="512.214" y2="66.8765" stroke="#57C78F" stroke-width="10"/>
<line x1="29.2139" y1="37.8765" x2="362.214" y2="37.8765" stroke="#57C78F" stroke-width="10"/>
<line x1="402.214" y1="37.8765" x2="412.214" y2="37.8765" stroke="#57C78F" stroke-width="10"/>
<line x1="425.214" y1="37.8765" x2="435.214" y2="37.8765" stroke="#57C78F" stroke-width="10"/>
<line x1="448.214" y1="37.8765" x2="458.214" y2="37.8765" stroke="#57C78F" stroke-width="10"/>
<line x1="117.982" y1="229.892" x2="189.901" y2="157.974" stroke="#57C78F" stroke-width="10" stroke-linecap="round"/>
<line x1="5" y1="-5" x2="106.708" y2="-5" transform="matrix(0.707107 0.707107 0.707107 -0.707107 117.982 223.697)" stroke="#57C78F" stroke-width="10" stroke-linecap="round"/>
<line x1="5" y1="-5" x2="106.708" y2="-5" transform="matrix(-0.707107 -0.707107 -0.707107 0.707107 394.445 236.963)" stroke="#57C78F" stroke-width="10" stroke-linecap="round"/>
<line x1="394.445" y1="230.768" x2="322.527" y2="302.686" stroke="#57C78F" stroke-width="10" stroke-linecap="round"/>
<path fill-rule="evenodd" clip-rule="evenodd" d="M209.297 193.312L225.985 197.496C230.973 192.924 236.952 189.418 243.563 187.335L248.282 170.798C251.345 170.333 254.481 170.092 257.674 170.092C260.866 170.092 264.003 170.333 267.065 170.798L271.785 187.335C278.396 189.417 284.375 192.924 289.363 197.495L306.051 193.312C309.96 198.183 313.149 203.656 315.456 209.571L303.486 221.935C304.207 225.205 304.588 228.603 304.588 232.09C304.588 235.576 304.207 238.974 303.486 242.244L315.456 254.608C313.149 260.523 309.96 265.996 306.051 270.867L289.362 266.684C284.375 271.255 278.396 274.762 271.785 276.844L267.065 293.381C264.003 293.846 260.866 294.088 257.674 294.088C254.481 294.088 251.345 293.846 248.282 293.381L243.563 276.844C236.952 274.761 230.973 271.255 225.985 266.684L209.297 270.867C205.388 265.996 202.199 260.523 199.892 254.608L211.862 242.244C211.141 238.974 210.76 235.576 210.76 232.09C210.76 228.603 211.141 225.205 211.862 221.935L199.892 209.571C202.199 203.656 205.388 198.183 209.297 193.312ZM257.674 250.177C267.663 250.177 275.762 242.079 275.762 232.09C275.762 222.1 267.663 214.002 257.674 214.002C247.684 214.002 239.586 222.1 239.586 232.09C239.586 242.079 247.684 250.177 257.674 250.177Z" fill="#57C78F"/>
</svg>
